HIERARCHY
ROOT hip
{
	OFFSET 0.000000 0.000000 0.000000 
	CHANNELS 6 Xposition Yposition Zposition Xrotation Zrotation Yrotation
	JOINT abdomen
	{
		OFFSET 0.000000 3.402643 0.000000 
		CHANNELS 3 Xrotation Zrotation Yrotation
		JOINT chest
		{
			OFFSET 0.000000 8.438565 -0.680529 
			CHANNELS 3 Xrotation Zrotation Yrotation
			JOINT neck
			{
				OFFSET 0.000000 10.207942 -0.272212 
				CHANNELS 3 Xrotation Zrotation Yrotation
				JOINT head
				{
					OFFSET 0.000000 3.130431 0.000000 
					CHANNELS 3 Xrotation Zrotation Yrotation
					End Site
					{
						OFFSET 0.000000 3.130435 0.000000 
					}
				}
			}
			JOINT lCollar
			{
				OFFSET 3.470700 6.669187 -0.816635 
				CHANNELS 3 Yrotation Zrotation Xrotation
				JOINT lShldr
				{
					OFFSET 3.198488 0.000000 0.000000 
					CHANNELS 3 Zrotation Yrotation Xrotation
					JOINT lForeArm
					{
						OFFSET 10.139888 0.000000 0.000000 
						CHANNELS 3 Yrotation Zrotation Xrotation
						JOINT lHand
						{
							OFFSET 8.370511 0.000000 0.000000 
							CHANNELS 3 Zrotation Yrotation Xrotation
							End Site
							{
								OFFSET 4.083176 0.000000 0.000000 
							}
						}
					}
				}
			}
			JOINT rCollar
			{
				OFFSET -3.470700 6.669187 -0.816635 
				CHANNELS 3 Yrotation Zrotation Xrotation
				JOINT rShldr
				{
					OFFSET -3.198488 0.000000 0.000000 
					CHANNELS 3 Zrotation Yrotation Xrotation
					JOINT rForeArm
					{
						OFFSET -10.139888 0.000000 0.000000 
						CHANNELS 3 Yrotation Zrotation Xrotation
						JOINT rHand
						{
							OFFSET -8.370511 0.000000 0.000000 
							CHANNELS 3 Zrotation Yrotation Xrotation
							End Site
							{
								OFFSET -4.083176 0.000000 0.000000 
							}
						}
					}
				}
			}
		}
	}
	JOINT lThigh
	{
		OFFSET 5.308129 -1.633274 1.361059 
		CHANNELS 3 Xrotation Zrotation Yrotation
		JOINT lShin
		{
			OFFSET -2.041588 -20.007561 0.000000 
			CHANNELS 3 Xrotation Zrotation Yrotation
			JOINT lFoot
			{
				OFFSET 0.000000 -19.190928 -1.224953 
				CHANNELS 3 Xrotation Yrotation Zrotation
				End Site
				{
					OFFSET 0.000000 -2.449906 4.627600 
				}
			}
		}
	}
	JOINT rThigh
	{
		OFFSET -5.308129 -1.633274 1.361059 
		CHANNELS 3 Xrotation Zrotation Yrotation
		JOINT rShin
		{
			OFFSET 2.041588 -20.007561 0.000000 
			CHANNELS 3 Xrotation Zrotation Yrotation
			JOINT rFoot
			{
				OFFSET 0.000000 -19.190928 -1.224953 
				CHANNELS 3 Xrotation Yrotation Zrotation
				End Site
				{
					OFFSET 0.000000 -2.449906 4.627600 
				}
			}
		}
	}
}
MOTION
Frames: 20
Frame Time: 0.033333
0.647413 48.832165 -0.409480 0.000000 0.390625 -0.058594 0.000000 0.000000 0.000000 -3.378924 -0.185224 -0.086720 5.508564 -0.441457 0.022160 5.410058 0.448521 -0.073852 -0.058253 9.062529 -2.538000 -1.639549 3.859931 -3.236266 2.466348 -7.910401 8.528792 1.481836 -2.997354 -3.487298 -0.098678 -9.943007 -2.544640 0.596296 -7.340207 -9.365573 -0.608090 5.852025 15.775244 -3.241228 5.892634 -3.631843 -0.586167 9.906906 7.351497 14.452633 -3.533831 4.988888 -11.703779 0.825409 -7.767946 0.146078 -11.169551 -9.910474 13.834175 2.369057 -20.352844 -8.238629 -0.868392 11.941163 
0.649427 48.829643 -0.398505 0.029298 0.410156 -0.058314 0.000000 0.000000 0.000000 -3.466815 -0.185207 -0.125499 5.450406 -0.515160 0.037993 5.497884 0.585077 -0.090336 -0.013822 8.914837 -2.627054 -1.609584 3.694027 -3.214693 2.457745 -7.994028 8.131607 2.037880 -2.640481 -3.510635 -0.073175 -9.963862 -2.611282 0.596564 -7.437810 -9.375866 -0.639567 5.841067 15.953321 -3.387353 5.717151 -3.639857 -0.605843 9.877741 7.319749 14.487622 -3.525858 5.065083 -11.739408 0.805502 -7.778606 0.125805 -11.206943 -9.922430 13.873400 2.408112 -20.277794 -8.308975 -0.876404 11.918347 
0.646909 48.814541 -0.392930 0.048829 0.341797 -0.068010 0.000000 0.000000 0.000000 -3.525405 -0.165701 -0.106979 5.371761 -0.376757 -0.025713 5.546818 0.351062 -0.077340 0.053110 9.068424 -2.683407 -1.815642 3.517756 -3.273520 2.450125 -8.017287 7.759962 2.475796 -2.437353 -3.536519 -0.153864 -9.794376 -2.675957 0.537930 -7.369381 -9.392013 -0.577925 5.801882 15.634409 -3.189035 5.220740 -3.617816 -0.742244 9.979288 7.333215 14.780878 -3.516258 5.016288 -11.905668 0.813917 -7.810190 0.037987 -11.147232 -9.875936 14.025818 2.395944 -20.279148 -8.390115 -0.901990 11.973466 
0.640996 48.824989 -0.384322 0.039063 0.341797 -0.155959 0.000000 0.000000 0.000000 -3.583999 -0.165691 -0.106810 5.381494 -0.360139 -0.042918 5.253865 0.282719 -0.075141 0.085585 8.988998 -2.736775 -1.828021 3.507472 -3.421050 2.451084 -7.957588 7.775779 2.347780 -2.425702 -3.529098 -0.232578 -9.800718 -2.737301 0.571025 -7.251036 -9.607691 -0.577503 5.759412 15.535511 -3.039860 5.190908 -3.609370 -0.625175 9.942741 7.343070 14.571277 -3.485353 5.151079 -11.810912 0.813176 -7.863046 0.097125 -11.132072 -9.856986 13.868613 2.375766 -20.242184 -8.316243 -0.879270 11.938694 
0.654584 48.822342 -0.377715 -0.009766 0.410156 -0.117257 0.000000 0.000000 0.000000 -3.584005 -0.194931 -0.163572 5.303772 -0.425261 -0.147509 5.322207 0.341237 -0.156282 0.035290 8.933340 -2.738580 -1.858365 3.477922 -3.481045 2.451101 -7.976468 7.786747 2.726416 -2.216329 -3.541688 -0.292249 -9.846158 -2.737431 0.579420 -7.192855 -9.529761 -0.584435 5.828880 15.371492 -2.914533 5.228064 -3.592261 -0.566987 9.836616 7.268623 14.556791 -3.457739 5.126307 -11.822785 0.811657 -7.842340 0.125854 -11.235451 -9.934287 13.963877 2.390301 -20.215870 -8.339557 -0.876320 11.973130 
0.663393 48.825363 -0.369498 -0.068361 0.410156 -0.117677 0.000000 0.000000 0.000000 -3.593767 -0.175436 -0.184294 5.235559 -0.418090 -0.138493 5.429651 0.273018 -0.112795 -0.013957 8.926140 -2.743846 -1.827381 3.439214 -3.391526 2.447525 -8.062996 7.655221 3.033593 -1.962347 -3.559621 -0.302940 -9.816175 -2.747072 0.560659 -7.212137 -9.577685 -0.585791 5.803666 15.458611 -2.642505 5.117744 -3.576087 -0.469355 9.817525 7.259369 14.504528 -3.427310 5.152565 -11.800497 0.804825 -7.856206 0.233584 -11.254786 -9.998339 13.892906 2.427725 -20.118250 -8.325216 -0.876110 11.940483 
0.672832 48.820717 -0.362162 -0.058595 0.380859 -0.224999 0.000000 0.000000 0.000000 -3.662120 -0.136440 -0.157283 5.157274 -0.386506 -0.125066 5.478504 0.156018 -0.106174 0.038955 9.011761 -2.814076 -1.884094 3.400420 -3.286430 2.444731 -8.128192 7.551705 3.333928 -1.757614 -3.567519 -0.256759 -9.799396 -2.810675 0.618150 -7.339523 -9.493506 -0.612598 5.764059 16.075258 -3.156658 5.330395 -3.616457 -0.498401 9.850891 7.300386 14.614119 -3.447624 5.250020 -11.870129 0.812986 -7.864400 0.204177 -11.254450 -9.987496 13.908175 2.434614 -20.028292 -8.350701 -0.881820 11.927861 
0.692086 48.815044 -0.353818 -0.058595 0.439453 -0.352012 0.000000 0.000000 0.000000 -3.730482 -0.155919 -0.087490 5.059025 -0.321707 -0.119617 5.683577 -0.195059 -0.038879 0.110316 9.203590 -2.881705 -2.099910 3.351064 -3.336977 2.448085 -8.108669 7.707004 3.623780 -1.543660 -3.574782 -0.222363 -9.733551 -2.874223 0.552498 -7.338623 -9.665750 -0.612892 5.717795 16.034803 -2.944493 5.392540 -3.604047 -0.479151 9.781260 7.335808 14.653350 -3.506259 5.328422 -11.935310 0.814001 -7.810758 0.145030 -11.331539 -9.971339 14.015427 2.405389 -19.829687 -8.400967 -0.903033 11.973340 
0.701775 48.821468 -0.345965 -0.058596 0.478515 -0.381349 0.000000 0.000000 0.000000 -3.769551 -0.185145 -0.114755 5.010480 -0.375399 0.014201 5.498043 -0.087762 0.092652 0.082673 9.283812 -2.911576 -2.159224 3.399677 -3.369455 2.453587 -8.044648 7.948919 3.671043 -1.207981 -3.577950 -0.321587 -9.689109 -2.904067 0.410886 -7.252048 -9.423915 -0.575093 5.826200 15.409585 -2.821003 5.145814 -3.586296 -0.390860 9.712519 7.313208 14.486085 -3.496209 5.380188 -11.857970 0.828583 -7.812765 0.154774 -11.387486 -10.015063 13.964173 2.410066 -19.833012 -8.368833 -0.895953 11.965012 
0.720903 48.826374 -0.337421 -0.078129 0.566406 -0.401163 0.000000 0.000000 0.000000 -3.798852 -0.204628 -0.181725 5.050410 -0.493330 0.116721 5.322261 -0.097496 0.220433 0.040485 9.140030 -2.934815 -2.088324 3.497966 -3.219204 2.439941 -8.104466 7.304274 4.189863 -0.294368 -3.570854 -0.342108 -9.804949 -2.937126 0.473659 -7.192232 -9.651178 -0.558406 5.738324 15.552675 -2.475087 4.951976 -3.566139 -0.273981 9.580589 7.237729 14.319048 -3.484988 5.432024 -11.804963 0.804553 -7.813110 0.224245 -11.531061 -10.096664 13.919923 2.416301 -19.746716 -8.337506 -0.876686 11.983609 
0.739654 48.826492 -0.334187 -0.117192 0.527343 -0.421000 0.000000 0.000000 0.000000 -3.779317 -0.185143 -0.173317 5.010958 -0.395386 0.159419 5.136670 -0.302180 0.311275 0.136216 9.320721 -2.927376 -2.307967 3.359909 -3.494041 2.438712 -8.041731 7.212302 4.699523 0.746199 -3.564233 -0.450183 -9.819079 -2.927843 0.630066 -7.221654 -9.620305 -0.599258 5.765935 15.742479 -2.995236 5.262180 -3.606543 -0.245065 9.590363 7.268383 14.378719 -3.476682 5.350896 -11.862545 0.829376 -7.769173 0.282320 -11.521790 -10.117896 13.853456 2.447002 -19.737873 -8.299527 -0.875110 11.961668 
0.756014 48.809135 -0.325314 -0.185551 0.400389 -0.421219 0.000000 0.000000 0.000000 -3.740244 -0.126683 -0.177265 4.941893 -0.157739 0.229992 5.146298 -0.594619 0.504670 0.169906 9.514356 -2.904456 -2.375879 3.262174 -3.477706 2.429407 -8.116029 6.804713 5.340201 0.953985 -3.571467 -0.481395 -9.387300 -2.895716 0.275513 -7.271005 -9.534168 -0.605857 5.810561 15.510376 -2.974442 5.087351 -3.595351 -0.352147 9.779748 7.377430 14.831166 -3.516903 5.295371 -12.099564 0.823402 -7.765917 0.330312 -11.407139 -10.101468 13.938316 2.474101 -19.739056 -8.357091 -0.873781 11.985578 
0.777157 48.812534 -0.320219 -0.263680 0.458980 -0.392737 0.000000 0.000000 0.000000 -3.730484 -0.165664 -0.262636 4.991625 -0.265810 0.362565 5.009722 -0.282646 0.593924 0.174542 9.417058 -2.898376 -2.376661 3.301101 -3.516894 2.424543 -8.101373 6.569022 6.116083 1.180848 -3.575756 -0.535257 -9.520704 -2.880955 0.383127 -7.232010 -9.519944 -0.603680 5.840206 15.354062 -2.791684 4.991081 -3.584321 -0.264014 9.655067 7.301844 14.718596 -3.456334 5.407180 -12.026767 0.821359 -7.797989 0.429319 -11.503820 -10.151312 13.902821 2.447127 -19.725069 -8.327324 -0.892161 12.008253 
0.802324 48.813286 -0.315247 -0.224620 0.556636 -0.431870 0.000000 0.000000 0.000000 -3.828147 -0.194877 -0.279929 5.100307 -0.406062 0.576899 4.658202 -0.038970 0.735110 0.233516 9.297374 -2.988200 -2.427373 3.251789 -3.626650 2.419712 -8.076949 6.331351 7.198166 1.203591 -3.594710 -0.483108 -9.757774 -2.964862 0.630687 -7.328917 -9.650180 -0.573292 5.763930 15.163666 -2.713525 4.682825 -3.579318 -0.234894 9.496368 7.222930 14.622050 -3.446999 5.463786 -12.009751 0.818161 -7.766706 0.370083 -11.627725 -10.178058 13.947665 2.415404 -19.686403 -8.311279 -0.885493 12.075054 
0.816671 48.814037 -0.301468 -0.224622 0.605464 -0.529717 0.000000 0.000000 0.000000 -3.896512 -0.214347 -0.219776 5.099876 -0.300112 0.832944 4.599516 -0.389672 1.072197 0.291813 9.264711 -3.045679 -2.505034 3.222419 -3.601286 2.407702 -8.119381 5.804387 8.189043 1.133151 -3.617031 -0.393738 -9.772854 -3.027565 0.658321 -7.544365 -9.535677 -0.607145 5.767723 15.567661 -3.195708 5.014843 -3.618084 -0.166559 9.432001 7.229642 14.556183 -3.486930 5.581069 -12.002692 0.821338 -7.743147 0.370078 -11.712488 -10.223668 13.948029 2.435217 -19.547575 -8.333087 -0.882852 12.066359 
0.839575 48.814167 -0.300524 -0.253920 0.595697 -0.598343 0.000000 0.000000 0.000000 -3.896507 -0.194861 -0.142978 5.119251 -0.187931 1.021600 4.521257 -0.603933 1.273568 0.366793 9.230742 -3.047224 -2.535275 3.085393 -3.670682 2.402215 -8.143620 5.569745 8.421206 1.021637 -3.628452 -0.430576 -9.849814 -3.035273 0.885752 -7.582793 -9.635291 -0.588669 5.698469 15.573610 -2.996443 4.968565 -3.596204 -0.147105 9.403255 7.237906 14.592233 -3.476116 5.667222 -12.031252 0.815879 -7.746490 0.408822 -11.723833 -10.216143 13.908519 2.405514 -19.416618 -8.316500 -0.868711 12.072369 
0.862983 48.815548 -0.298800 -0.273451 0.566400 -0.627703 0.000000 0.000000 0.000000 -3.925809 -0.214340 -0.024353 5.089633 0.028785 1.155460 4.609050 -0.730643 1.418203 0.374053 9.415330 -3.070546 -2.722887 2.898950 -3.806548 2.404562 -8.127836 5.667965 8.523290 1.243908 -3.625081 -0.412942 -9.812563 -3.068121 1.009768 -7.788951 -9.418336 -0.573708 5.743778 15.172830 -3.100929 4.756572 -3.602168 -0.127517 9.403758 7.248084 14.623532 -3.467127 5.636952 -12.075113 0.827234 -7.719904 0.457401 -11.730885 -10.267837 13.836862 2.458556 -19.396292 -8.247529 -0.891255 12.038130 
0.870530 48.818443 -0.305922 -0.292984 0.585930 -0.657293 0.000000 0.000000 0.000000 -3.916057 -0.263056 0.018007 5.002222 0.080156 1.308796 4.579975 -0.409145 1.464325 0.373211 9.552053 -3.064860 -2.891740 2.839368 -3.971614 2.407136 -8.063922 5.752032 8.446856 1.219140 -3.621066 -0.455660 -9.761604 -3.060987 1.031546 -7.846902 -9.536820 -0.587533 5.695671 15.466133 -2.954271 4.765713 -3.593703 -0.107958 9.339607 7.204606 14.580335 -3.416840 5.781710 -12.022085 0.831434 -7.760231 0.476943 -11.758986 -10.290362 13.804405 2.466363 -19.367886 -8.221334 -0.879416 12.042864 
0.874810 48.823101 -0.307571 -0.341814 0.566396 -0.706504 0.000000 0.000000 0.000000 -3.876991 -0.253325 -0.031661 4.954108 -0.015664 1.471456 4.521483 -0.038963 1.545750 0.440050 9.460785 -3.025232 -2.871341 2.849362 -3.921822 2.410208 -8.084096 5.900014 8.115232 1.069433 -3.622753 -0.391587 -9.793896 -3.015418 1.075712 -7.796514 -9.823043 -0.600360 5.616740 15.630594 -2.855277 4.752301 -3.588049 -0.039390 9.351088 7.235909 14.554472 -3.437611 5.761966 -12.004560 0.819479 -7.722405 0.585492 -11.717257 -10.212226 13.641368 2.370505 -19.320347 -8.115934 -0.868582 12.076324 
0.884248 48.827507 -0.320571 -0.390642 0.527331 -0.716486 0.000000 0.000000 0.000000 -3.828157 -0.233852 -0.033180 4.797489 0.069051 1.408439 4.726509 -0.302042 1.582969 0.573679 9.492954 -2.998157 -2.919658 2.634391 -3.923123 2.410232 -8.150507 5.933486 7.945377 1.126482 -3.614129 -0.384564 -9.618186 -2.975973 0.957354 -7.806551 -9.787795 -0.624660 5.608683 16.061646 -3.547052 4.826482 -3.637994 -0.010648 9.379688 7.267907 14.542274 -3.446485 5.761645 -11.989133 0.836667 -7.702652 0.634175 -11.677833 -10.220964 13.551112 2.388500 -19.392065 -8.029859 -0.866532 12.031534 
